<svg width="68" height="68" viewBox="0 0 68 68" fill="none" xmlns="http://www.w3.org/2000/svg">
<g filter="url(#filter0_b_0_3107)">
<circle cx="34" cy="34" r="34" fill="white" fill-opacity="0.15"/>
</g>
<path fill-rule="evenodd" clip-rule="evenodd" d="M27.2502 39.6483C27.4752 39.4233 27.6016 39.1181 27.6016 38.7999C27.6016 38.4817 27.4752 38.1765 27.2502 37.9515L23.2986 33.9999L27.2502 30.0483C27.4688 29.822 27.5898 29.5189 27.587 29.2042C27.5843 28.8896 27.4581 28.5886 27.2356 28.3661C27.0131 28.1436 26.7121 28.0174 26.3975 28.0147C26.0829 28.012 25.7797 28.1329 25.5534 28.3515L20.7534 33.1515C20.5285 33.3765 20.4021 33.6817 20.4021 33.9999C20.4021 34.3181 20.5285 34.6233 20.7534 34.8483L25.5534 39.6483C25.7785 39.8733 26.0836 39.9996 26.4018 39.9996C26.72 39.9996 27.0252 39.8733 27.2502 39.6483Z" fill="white"/>
<path fill-rule="evenodd" clip-rule="evenodd" d="M40.7498 28.3517C40.5248 28.5767 40.3984 28.8819 40.3984 29.2001C40.3984 29.5183 40.5248 29.8235 40.7498 30.0485L44.7014 34.0001L40.7498 37.9517C40.5312 38.178 40.4102 38.4811 40.413 38.7958C40.4157 39.1104 40.5419 39.4114 40.7644 39.6339C40.9869 39.8564 41.2879 39.9826 41.6025 39.9853C41.9171 39.988 42.2203 39.8671 42.4466 39.6485L47.2466 34.8485C47.4715 34.6235 47.5979 34.3183 47.5979 34.0001C47.5979 33.6819 47.4715 33.3767 47.2466 33.1517L42.4466 28.3517C42.2215 28.1267 41.9164 28.0004 41.5982 28.0004C41.28 28.0004 40.9748 28.1267 40.7498 28.3517Z" fill="white"/>
<defs>
<filter id="filter0_b_0_3107" x="-40" y="-40" width="148" height="148" filterUnits="userSpaceOnUse" color-interpolation-filters="sRGB">
<feFlood flood-opacity="0" result="BackgroundImageFix"/>
<feGaussianBlur in="BackgroundImageFix" stdDeviation="20"/>
<feComposite in2="SourceAlpha" operator="in" result="effect1_backgroundBlur_0_3107"/>
<feBlend mode="normal" in="SourceGraphic" in2="effect1_backgroundBlur_0_3107" result="shape"/>
</filter>
</defs>
</svg>
