<svg width="40" height="44" viewBox="0 0 40 44" fill="none" xmlns="http://www.w3.org/2000/svg">
<path d="M11.4977 23.7639C8.29364 23.7639 3.55371 25.2614 3.55371 28.474C3.55371 29.9117 4.72269 31.0829 6.16259 31.0829H16.8328C18.2705 31.0829 19.4417 29.9139 19.4417 28.474C19.4417 25.2614 14.7017 23.7639 11.4977 23.7639ZM16.8349 29.3742H6.16473C5.66769 29.3742 5.26239 28.9689 5.26239 28.4719C5.26239 26.6394 8.95707 25.4683 11.4998 25.4683C14.0426 25.4683 17.7372 26.6373 17.7372 28.4719C17.7351 28.971 17.3319 29.3742 16.8349 29.3742Z" fill="white" fill-opacity="0.5"/>
<path d="M11.4979 22.7256C14.2007 22.7256 16.4021 20.5263 16.4021 17.8214C16.4021 15.1165 14.2028 12.9172 11.4979 12.9172C8.79306 12.9172 6.59375 15.1165 6.59375 17.8214C6.59375 20.5263 8.79519 22.7256 11.4979 22.7256ZM11.4979 14.6259C13.2599 14.6259 14.6956 16.0594 14.6956 17.8236C14.6956 19.5877 13.2621 21.0212 11.4979 21.0212C9.73379 21.0212 8.3003 19.5877 8.3003 17.8236C8.3003 16.0594 9.73593 14.6259 11.4979 14.6259Z" fill="white" fill-opacity="0.5"/>
<path d="M5.22204 23.9688C5.68708 23.8963 6.00705 23.459 5.93452 22.994C5.86199 22.5289 5.42255 22.209 4.95965 22.2815C2.56195 22.6548 0 23.8409 0 26.0423C0 26.5415 0.159987 27.0129 0.465033 27.4075C0.633554 27.6251 0.885279 27.7382 1.14126 27.7382C1.32258 27.7382 1.50817 27.6806 1.66176 27.559C2.03507 27.271 2.10332 26.7356 1.81534 26.3623C1.76628 26.2983 1.70655 26.1895 1.70655 26.0423C1.70655 25.0418 3.47497 24.2419 5.22204 23.9688Z" fill="white" fill-opacity="0.5"/>
<path d="M5.098 21.2641C5.18973 21.2961 5.28572 21.311 5.37745 21.311C5.73155 21.311 6.06007 21.0891 6.1838 20.7372C6.33952 20.2913 6.10273 19.805 5.65903 19.6514C4.72256 19.325 4.09327 18.4419 4.09327 17.4521C4.09327 16.3791 4.82069 15.4511 5.86168 15.1909C6.31818 15.0778 6.59763 14.6149 6.48457 14.1563C6.37151 13.6998 5.90648 13.4204 5.44998 13.5334C3.64744 13.9814 2.38672 15.5919 2.38672 17.4499C2.38672 19.1671 3.47678 20.6988 5.098 21.2641Z" fill="white" fill-opacity="0.5"/>
<path d="M18.0379 22.2815C17.5729 22.209 17.1356 22.5269 17.063 22.994C16.9905 23.4591 17.3084 23.8964 17.7755 23.9689C19.5226 24.2419 21.2931 25.0419 21.2931 26.0445C21.2931 26.1938 21.2334 26.3005 21.1843 26.3645C20.8964 26.7378 20.9646 27.2732 21.3379 27.5612C21.4937 27.6806 21.6771 27.7404 21.8584 27.7404C22.1144 27.7404 22.3661 27.6273 22.5347 27.4097C22.8397 27.0151 22.9997 26.5437 22.9997 26.0445C22.9976 23.8409 20.4356 22.657 18.0379 22.2815Z" fill="white" fill-opacity="0.5"/>
<path d="M17.1363 15.1911C18.1773 15.4492 18.9047 16.3793 18.9047 17.4523C18.9047 18.4421 18.2754 19.3273 17.3389 19.6516C16.8931 19.8073 16.6584 20.2937 16.8142 20.7374C16.9358 21.0893 17.2664 21.3112 17.6205 21.3112C17.7144 21.3112 17.8082 21.2963 17.9 21.2643C19.5212 20.699 20.6112 19.1673 20.6112 17.4523C20.6112 15.5943 19.3527 13.9837 17.548 13.5357C17.0915 13.4227 16.6286 13.7 16.5134 14.1586C16.4003 14.6151 16.6798 15.078 17.1363 15.1911Z" fill="white" fill-opacity="0.5"/>
</svg>
