<svg width="20" height="44" viewBox="0 0 20 44" fill="none" xmlns="http://www.w3.org/2000/svg">
<path d="M15.5212 31.1666H14.0284C12.693 31.1666 11.607 30.0806 11.607 28.7452V24.6545C11.607 24.24 11.2712 23.9042 10.8568 23.9042H9.13953C8.72509 23.9042 8.3893 24.24 8.3893 24.6545V28.7452C8.3893 30.0806 7.30331 31.1666 5.96789 31.1666H4.47513C3.1397 31.1666 2.05371 30.0806 2.05371 28.7452V21.502C2.05371 19.9152 2.66002 18.4148 3.76136 17.2732L6.68357 14.2416C7.55851 13.334 8.73659 12.8333 9.99911 12.8333C11.2616 12.8333 12.4378 13.334 13.3147 14.2416L16.2369 17.2732C17.3382 18.4148 17.9445 19.9172 17.9445 21.502V28.7452C17.9426 30.0806 16.8566 31.1666 15.5212 31.1666ZM9.13953 22.3693H10.8568C12.1174 22.3693 13.142 23.3939 13.142 24.6545V28.7452C13.142 29.2344 13.5391 29.6316 14.0284 29.6316H15.5212C16.0105 29.6316 16.4076 29.2344 16.4076 28.7452V21.502C16.4076 20.3162 15.9548 19.1919 15.1298 18.338L12.2076 15.3065C11.6243 14.7002 10.8395 14.3682 9.99719 14.3682C9.15679 14.3682 8.37204 14.7021 7.78684 15.3065L4.86462 18.338C4.04149 19.1919 3.58676 20.3162 3.58676 21.502V28.7452C3.58676 29.2344 3.98394 29.6316 4.47321 29.6316H5.96596C6.45524 29.6316 6.85242 29.2344 6.85242 28.7452V24.6545C6.85626 23.3939 7.88085 22.3693 9.13953 22.3693Z" fill="white" fill-opacity="0.5"/>
</svg>
