<svg width="20" height="44" viewBox="0 0 20 44" fill="none" xmlns="http://www.w3.org/2000/svg">
<path d="M4.59978 30.3334C4.05446 30.3334 3.55372 30.1895 3.14017 29.9057C2.71648 29.6138 2.17928 29.034 2.03535 27.9291C1.80222 25.9627 1.68464 23.972 1.68262 22.0016C1.68262 20.0311 1.80019 18.0404 2.03332 16.0821C2.17928 14.9651 2.71648 14.3874 3.14017 14.0955C3.74631 13.6778 4.54908 13.5603 5.39646 13.765C8.54674 14.5232 14.9325 17.9958 17.4016 20.0352C17.9773 20.5116 18.3118 21.2231 18.3159 21.9914V22.0117C18.3118 22.778 17.9793 23.4916 17.4016 23.968C14.9325 26.0073 8.54472 29.48 5.39646 30.2381C5.12481 30.301 4.85723 30.3334 4.59978 30.3334ZM4.59572 15.2875C4.38083 15.2875 4.19635 15.3361 4.0585 15.4314C3.7828 15.6219 3.6794 15.999 3.64291 16.2828C3.41992 18.1661 3.30439 20.094 3.30439 21.9996C3.30439 23.9072 3.41789 25.833 3.64291 27.7264C3.6794 28.0001 3.78077 28.3792 4.0585 28.5677C4.2815 28.7218 4.62206 28.7522 5.01737 28.6569C7.84938 27.9758 14.1033 24.5842 16.3698 22.7131C16.5704 22.5469 16.6921 22.2813 16.6941 22.0016V21.9935C16.6921 21.7178 16.5704 21.4502 16.3698 21.2839C14.1033 19.4108 7.84938 16.0213 5.01737 15.3402C4.86736 15.3057 4.72749 15.2875 4.59572 15.2875Z" fill="white" fill-opacity="0.5"/>
</svg>
